<svg xmlns="http://www.w3.org/2000/svg" width="640" height="400" viewBox="0 0 640 400" fill="none" role="img" aria-label="Classes and streams">
  <rect width="640" height="400" rx="16" fill="#F4F6FA"/>
  <rect x="32" y="32" width="576" height="48" rx="12" fill="#FFFFFF" stroke="#E2E6F0"/>
  <rect x="48" y="48" width="160" height="16" rx="8" fill="#111827"/>
  <rect x="32" y="104" width="176" height="264" rx="16" fill="#FFFFFF" stroke="#E2E6F0"/>
  <rect x="56" y="132" width="120" height="12" rx="6" fill="#4F6EF7"/>
  <rect x="56" y="160" width="100" height="10" rx="5" fill="#EDF0F7"/>
  <rect x="56" y="184" width="110" height="10" rx="5" fill="#EDF0F7"/>
  <rect x="224" y="104" width="384" height="264" rx="16" fill="#FFFFFF" stroke="#E2E6F0"/>
  <rect x="248" y="132" width="200" height="14" rx="7" fill="#111827"/>
  <rect x="248" y="168" width="336" height="36" rx="10" fill="#F9FAFB" stroke="#E2E6F0"/>
  <rect x="248" y="220" width="336" height="36" rx="10" fill="#FFFFFF" stroke="#E2E6F0"/>
  <rect x="248" y="272" width="336" height="36" rx="10" fill="#F9FAFB" stroke="#E2E6F0"/>
</svg>
